<?xml version="1.0" standalone="no"?>
<!DOCTYPE svg PUBLIC "-//W3C//DTD SVG 20010904//EN"
 "http://www.w3.org/TR/2001/REC-SVG-20010904/DTD/svg10.dtd">
<svg version="1.0" xmlns="http://www.w3.org/2000/svg"
 width="672.000000pt" height="672.000000pt" viewBox="0 0 672.000000 672.000000"
 preserveAspectRatio="xMidYMid meet">
<metadata>
Created by potrace 1.14, written by Peter Selinger 2001-2017
</metadata>
<g transform="translate(0.000000,672.000000) scale(0.100000,-0.100000)"
fill="#000000" stroke="none">
<path d="M3117 6044 c-2 -2 -28 -6 -58 -9 -30 -3 -72 -8 -94 -11 -22 -3 -53
-8 -70 -10 -16 -2 -52 -9 -80 -14 -27 -5 -66 -12 -85 -16 -44 -7 -65 -12 -65
-14 0 -1 -9 -3 -21 -5 -35 -7 -128 -33 -154 -43 -14 -5 -29 -10 -35 -11 -5 -1
-28 -7 -50 -13 -22 -6 -42 -12 -45 -13 -3 -1 -16 -6 -30 -12 -14 -6 -52 -21
-85 -33 -174 -66 -452 -208 -542 -276 -17 -13 -34 -24 -37 -24 -9 0 -151 -102
-154 -112 -2 -4 -8 -8 -13 -8 -5 0 -40 -25 -76 -55 -37 -30 -71 -55 -75 -55
-4 0 -8 -7 -8 -15 0 -8 -6 -15 -12 -15 -17 -1 -247 -234 -335 -340 -98 -118
-249 -332 -251 -354 0 -5 -4 -12 -9 -15 -9 -6 -30 -41 -101 -171 -29 -53 -122
-257 -137 -300 -1 -3 -5 -12 -8 -20 -13 -31 -48 -129 -52 -147 -3 -10 -21 -72
-40 -138 -20 -66 -38 -133 -41 -150 -2 -16 -7 -37 -9 -45 -6 -23 -16 -72 -20
-105 -2 -16 -6 -43 -9 -60 -3 -16 -8 -50 -11 -75 -3 -25 -8 -61 -11 -80 -7
-55 -14 -345 -14 -585 0 -121 0 -265 0 -320 -1 -55 -1 -107 -1 -115 0 -8 0
-62 0 -120 0 -58 0 -116 1 -130 1 -14 2 -32 1 -40 -3 -148 0 -503 4 -510 3 -5
1 -11 -4 -15 -6 -3 -8 -11 -6 -18 3 -7 7 -52 9 -102 6 -143 37 -247 109 -367
102 -170 296 -314 476 -353 11 -3 31 -8 43 -12 39 -11 678 -13 733 -2 28 6 63
13 78 15 52 10 227 91 227 107 0 4 4 7 10 7 31 0 174 150 226 236 49 83 77
156 98 255 14 64 15 168 13 754 -2 374 -6 689 -9 700 -54 181 -111 285 -208
384 -36 36 -74 73 -85 81 -87 67 -225 128 -330 146 -70 12 -85 12 -406 13
l-317 1 3 28 c2 15 6 43 10 62 4 19 8 44 10 55 13 92 90 345 146 480 40 98
138 289 150 293 5 2 9 10 9 17 0 8 6 20 12 27 7 7 19 24 26 38 17 33 147 208
203 273 95 110 219 227 344 325 109 86 109 85 131 99 146 92 337 199 374 208
3 1 23 10 45 20 22 10 45 20 50 21 6 1 46 16 90 32 44 16 109 37 145 47 36 9
72 19 80 22 8 3 22 7 30 8 8 2 40 8 70 14 95 19 104 21 150 27 25 4 59 9 75
11 54 9 505 10 548 3 23 -5 83 -14 132 -21 50 -7 95 -14 100 -15 6 -1 42 -10
80 -18 39 -9 75 -18 80 -20 6 -1 30 -8 55 -15 51 -13 150 -48 195 -67 17 -7
59 -25 95 -40 185 -76 432 -229 598 -371 77 -66 238 -228 287 -288 22 -27 48
-59 58 -70 40 -42 188 -275 240 -375 30 -58 76 -159 102 -225 26 -66 51 -129
55 -140 5 -11 11 -31 14 -45 4 -14 17 -68 31 -120 13 -52 27 -108 30 -125 10
-51 25 -140 25 -147 0 -4 -143 -8 -317 -8 -311 -2 -363 -3 -412 -14 -104 -23
-262 -93 -308 -136 -12 -11 -25 -20 -28 -20 -23 0 -206 -225 -211 -259 0 -3
-10 -26 -21 -51 -11 -25 -29 -76 -39 -115 -17 -65 -19 -120 -20 -725 -1 -360
2 -684 7 -720 45 -329 306 -600 634 -658 22 -4 195 -7 385 -7 334 0 347 1 420
23 152 48 245 104 350 212 41 42 82 90 90 106 8 16 18 31 21 34 9 8 56 111 73
162 18 55 26 95 32 158 7 68 6 1782 0 1880 -9 130 -20 229 -31 290 -3 14 -8
41 -11 60 -3 19 -7 42 -9 50 -2 8 -7 30 -10 49 -15 88 -85 330 -125 431 -10
25 -32 81 -50 125 -35 88 -173 361 -196 386 -8 8 -14 19 -14 23 0 7 -138 215
-150 226 -3 3 -18 23 -35 45 -16 22 -31 42 -34 45 -4 3 -23 25 -43 50 -138
169 -332 354 -508 485 -41 30 -81 60 -87 65 -32 27 -175 117 -183 116 -3 0
-25 14 -50 31 -25 16 -103 58 -175 93 -71 34 -137 66 -147 70 -35 19 -178 71
-288 105 -157 49 -171 53 -200 59 -22 4 -132 27 -195 41 -18 4 -68 10 -155 21
-19 2 -55 7 -80 10 -51 6 -577 14 -583 8z m-1529 -3414 c18 -11 41 -34 52 -52
19 -32 20 -52 20 -637 0 -588 -1 -606 -20 -647 -19 -39 -54 -64 -100 -71 -17
-2 -343 -3 -457 -1 -64 1 -77 5 -107 30 -39 32 -65 98 -56 143 4 17 3 39 0 50
-4 11 -4 28 -1 38 4 10 4 42 1 70 -3 29 -3 66 0 82 4 17 3 39 0 50 -4 11 -4
28 -1 38 4 10 4 43 1 73 -3 30 -3 59 0 65 4 6 4 27 0 48 -4 20 -4 45 0 55 3
10 3 42 0 72 -3 30 -3 59 0 65 4 6 4 27 0 48 -4 21 -3 47 1 59 5 12 4 24 0 27
-5 3 -6 20 -2 38 5 18 5 41 1 52 -4 11 -4 30 1 41 4 12 6 24 4 26 -3 3 -6 82
-4 118 0 8 0 35 0 60 0 25 -1 53 0 63 0 16 20 17 318 17 296 -1 320 -2 349
-20z m4255 -266 c0 -155 -3 -286 -7 -293 -4 -6 -4 -11 1 -11 8 0 9 -673 0
-726 -7 -47 -34 -81 -77 -98 -31 -12 -82 -15 -242 -16 -294 0 -322 2 -355 26
-63 46 -61 23 -59 699 1 604 1 614 22 642 45 62 57 63 403 61 l314 -3 0 -281z"/>
</g>
</svg>
