<svg width="110" height="24" viewBox="0 0 110 24" fill="none" xmlns="http://www.w3.org/2000/svg">
<path fill-rule="evenodd" clip-rule="evenodd" d="M99.5654 2.59397C100.833 2.58536 102.09 2.82719 103.263 3.30561C104.44 3.78498 105.509 4.4924 106.411 5.3871C107.312 6.28179 108.028 7.34607 108.516 8.51858C109.004 9.69109 109.256 10.9486 109.256 12.2188V17.25C109.256 17.8965 108.999 18.5165 108.542 18.9736C108.085 19.4307 107.465 19.6875 106.818 19.6875H105.381C104.734 19.6875 104.114 19.4307 103.657 18.9736C103.2 18.5165 102.943 17.8965 102.943 17.25V13.6563C102.943 13.0098 103.2 12.3898 103.657 11.9327C104.114 11.4756 104.734 11.2188 105.381 11.2188H107.19C107.102 10.5564 106.928 9.90693 106.67 9.28745C106.283 8.35857 105.716 7.51545 105.002 6.80666C104.288 6.09788 103.44 5.53745 102.509 5.15769C101.577 4.77793 100.579 4.58634 99.573 4.59397H99.5578C98.5517 4.58634 97.5539 4.77793 96.6221 5.15769C95.6904 5.53745 94.843 6.09788 94.1288 6.80666C93.4146 7.51545 92.8478 8.35857 92.461 9.28745C92.203 9.90693 92.0285 10.5564 91.9409 11.2188H93.75C94.3965 11.2188 95.0165 11.4756 95.4736 11.9327C95.9307 12.3898 96.1875 13.0098 96.1875 13.6563V17.25C96.1875 17.8965 95.9307 18.5165 95.4736 18.9736C95.0165 19.4307 94.3965 19.6875 93.75 19.6875H92.3125C91.666 19.6875 91.046 19.4307 90.5889 18.9736C90.1318 18.5165 89.875 17.8965 89.875 17.25V12.2188C89.875 10.9486 90.1264 9.69109 90.6147 8.51858C91.1029 7.34607 91.8184 6.28179 92.7199 5.3871C93.6215 4.4924 94.6911 3.78498 95.8673 3.30561C97.0411 2.82719 98.2979 2.58536 99.5654 2.59397ZM91.875 13.2188V17.25C91.875 17.366 91.9211 17.4773 92.0031 17.5594C92.0852 17.6414 92.1965 17.6875 92.3125 17.6875H93.75C93.866 17.6875 93.9773 17.6414 94.0594 17.5594C94.1414 17.4773 94.1875 17.366 94.1875 17.25V13.6563C94.1875 13.5402 94.1414 13.4289 94.0594 13.3469C93.9773 13.2648 93.866 13.2188 93.75 13.2188H91.875ZM107.256 13.2188H105.381C105.265 13.2188 105.153 13.2648 105.071 13.3469C104.989 13.4289 104.943 13.5402 104.943 13.6563V17.25C104.943 17.366 104.989 17.4773 105.071 17.5594C105.153 17.6414 105.265 17.6875 105.381 17.6875H106.818C106.934 17.6875 107.046 17.6414 107.128 17.5594C107.21 17.4773 107.256 17.366 107.256 17.25V13.2188ZM99.5654 3.594V3.59403V3.594Z" fill="white"/>
<path d="M5.18 19.04C4.48667 19.04 3.85333 18.9067 3.28 18.64C2.70667 18.36 2.21333 17.98 1.8 17.5C1.4 17.0067 1.08667 16.44 0.86 15.8C0.633333 15.16 0.52 14.4733 0.52 13.74C0.52 12.9667 0.64 12.2533 0.88 11.6C1.12 10.9467 1.45333 10.3733 1.88 9.88C2.32 9.37333 2.83333 8.98667 3.42 8.72C4.02 8.44 4.68 8.3 5.4 8.3C6.18667 8.3 6.88 8.47333 7.48 8.82C8.08 9.15333 8.56 9.62 8.92 10.22V8.5H11.7V18.28C11.7 19.3467 11.44 20.2667 10.92 21.04C10.4133 21.8133 9.7 22.4067 8.78 22.82C7.87333 23.2467 6.82 23.46 5.62 23.46C4.5 23.46 3.53333 23.2733 2.72 22.9C1.92 22.54 1.22 22.0267 0.62 21.36L2.34 19.62C2.72667 20.06 3.20667 20.4067 3.78 20.66C4.35333 20.9267 4.96667 21.06 5.62 21.06C6.14 21.06 6.62 20.9667 7.06 20.78C7.5 20.5933 7.84667 20.2933 8.1 19.88C8.36667 19.4667 8.5 18.9333 8.5 18.28V17.26C8.18 17.8333 7.71333 18.2733 7.1 18.58C6.5 18.8867 5.86 19.04 5.18 19.04ZM6.28 16.5C6.53333 16.5 6.76667 16.4667 6.98 16.4C7.20667 16.32 7.41333 16.22 7.6 16.1C7.78667 15.9667 7.96 15.8133 8.12 15.64C8.28 15.4533 8.40667 15.2533 8.5 15.04V12.84C8.36667 12.4667 8.17333 12.1467 7.92 11.88C7.66667 11.6 7.38667 11.3867 7.08 11.24C6.77333 11.0933 6.45333 11.02 6.12 11.02C5.78667 11.02 5.47333 11.0933 5.18 11.24C4.88667 11.3867 4.63333 11.6 4.42 11.88C4.22 12.1467 4.06 12.4467 3.94 12.78C3.83333 13.1133 3.78 13.46 3.78 13.82C3.78 14.2067 3.84 14.56 3.96 14.88C4.09333 15.2 4.27333 15.4867 4.5 15.74C4.72667 15.98 4.99333 16.1667 5.3 16.3C5.60667 16.4333 5.93333 16.5 6.28 16.5ZM20.2948 19.12C19.2282 19.12 18.2615 18.92 17.3948 18.52C16.5415 18.1067 15.8015 17.56 15.1748 16.88C14.5615 16.1867 14.0882 15.4133 13.7548 14.56C13.4215 13.6933 13.2548 12.8 13.2548 11.88C13.2548 10.9333 13.4282 10.0333 13.7748 9.18C14.1348 8.32667 14.6282 7.56667 15.2548 6.9C15.8948 6.22 16.6482 5.68667 17.5148 5.3C18.3815 4.91333 19.3282 4.72 20.3548 4.72C21.4082 4.72 22.3615 4.92667 23.2148 5.34C24.0815 5.74 24.8215 6.28667 25.4348 6.98C26.0615 7.67333 26.5415 8.45333 26.8748 9.32C27.2082 10.1733 27.3748 11.0467 27.3748 11.94C27.3748 12.8867 27.2015 13.7867 26.8548 14.64C26.5082 15.4933 26.0148 16.26 25.3748 16.94C24.7348 17.6067 23.9815 18.14 23.1148 18.54C22.2615 18.9267 21.3215 19.12 20.2948 19.12ZM16.5948 11.92C16.5948 12.4667 16.6748 13 16.8348 13.52C16.9948 14.0267 17.2282 14.48 17.5348 14.88C17.8548 15.28 18.2482 15.6 18.7148 15.84C19.1815 16.08 19.7148 16.2 20.3148 16.2C20.9415 16.2 21.4882 16.08 21.9548 15.84C22.4215 15.5867 22.8082 15.2533 23.1148 14.84C23.4215 14.4267 23.6482 13.9667 23.7948 13.46C23.9548 12.94 24.0348 12.4133 24.0348 11.88C24.0348 11.3333 23.9548 10.8067 23.7948 10.3C23.6348 9.79333 23.3948 9.34 23.0748 8.94C22.7548 8.52667 22.3615 8.20667 21.8948 7.98C21.4282 7.75333 20.9015 7.64 20.3148 7.64C19.6882 7.64 19.1415 7.76 18.6748 8C18.2215 8.24 17.8348 8.56667 17.5148 8.98C17.2082 9.38 16.9748 9.84 16.8148 10.36C16.6682 10.8667 16.5948 11.3867 16.5948 11.92ZM37.712 8.96C37.672 8.89333 37.532 8.79333 37.292 8.66C37.052 8.51333 36.752 8.36 36.392 8.2C36.032 8.04 35.6387 7.9 35.212 7.78C34.7854 7.66 34.3587 7.6 33.932 7.6C33.372 7.6 32.9387 7.7 32.632 7.9C32.3254 8.08667 32.172 8.38 32.172 8.78C32.172 9.1 32.2854 9.35333 32.512 9.54C32.752 9.72667 33.092 9.89333 33.532 10.04C33.972 10.1733 34.512 10.3333 35.152 10.52C36.0587 10.76 36.8454 11.0533 37.512 11.4C38.1787 11.7333 38.6854 12.1667 39.032 12.7C39.392 13.2333 39.572 13.94 39.572 14.82C39.572 15.62 39.4254 16.3 39.132 16.86C38.8387 17.4067 38.4387 17.8533 37.932 18.2C37.4387 18.5333 36.872 18.78 36.232 18.94C35.592 19.0867 34.932 19.16 34.252 19.16C33.5587 19.16 32.8454 19.0933 32.112 18.96C31.392 18.8133 30.6987 18.6133 30.032 18.36C29.3654 18.0933 28.752 17.7733 28.192 17.4L29.632 14.54C29.6854 14.6067 29.8587 14.7333 30.152 14.92C30.4454 15.0933 30.8054 15.28 31.232 15.48C31.672 15.6667 32.1587 15.8333 32.692 15.98C33.2254 16.1267 33.7654 16.2 34.312 16.2C34.8987 16.2 35.332 16.1067 35.612 15.92C35.9054 15.7333 36.052 15.4733 36.052 15.14C36.052 14.78 35.8987 14.5 35.592 14.3C35.2987 14.1 34.892 13.92 34.372 13.76C33.8654 13.6 33.2787 13.42 32.612 13.22C31.7454 12.9533 31.0254 12.6533 30.452 12.32C29.892 11.9867 29.472 11.58 29.192 11.1C28.9254 10.62 28.792 10.02 28.792 9.3C28.792 8.3 29.0254 7.46 29.492 6.78C29.972 6.08667 30.612 5.56667 31.412 5.22C32.212 4.86 33.0854 4.68 34.032 4.68C34.6987 4.68 35.3387 4.76 35.952 4.92C36.5787 5.08 37.1587 5.28 37.692 5.52C38.2387 5.76 38.7254 6 39.152 6.24L37.712 8.96ZM52.3167 7.68H47.9967V19H44.7167V7.68H40.3767V4.8H52.3167V7.68ZM52.4472 19V15.74H55.0672V19H52.4472ZM57.737 19V11.78H56.397V9.36H57.737V8.5C57.737 7.62 57.8837 6.86 58.177 6.22C58.4837 5.58 58.9104 5.08667 59.457 4.74C60.017 4.38 60.6637 4.2 61.397 4.2C61.8504 4.2 62.3037 4.25333 62.757 4.36C63.2104 4.46667 63.6704 4.62 64.137 4.82L63.557 7.22C63.357 7.12667 63.1237 7.05333 62.857 7C62.5904 6.93333 62.3437 6.9 62.117 6.9C61.7304 6.9 61.437 7.02667 61.237 7.28C61.037 7.52 60.937 7.88667 60.937 8.38V9.36H63.377V11.78H60.937V19H57.737ZM81.3523 19H78.1523V13.1C78.1523 12.42 78.0257 11.92 77.7723 11.6C77.519 11.28 77.1923 11.12 76.7923 11.12C76.3657 11.12 75.9457 11.2933 75.5323 11.64C75.119 11.9867 74.8257 12.4333 74.6523 12.98V19H71.4523V13.1C71.4523 12.4067 71.3257 11.9067 71.0723 11.6C70.819 11.28 70.4923 11.12 70.0923 11.12C69.679 11.12 69.2657 11.2933 68.8523 11.64C68.439 11.9867 68.139 12.4333 67.9523 12.98V19H64.7523V8.5H67.6323V10.26C68.019 9.63333 68.539 9.15333 69.1923 8.82C69.859 8.47333 70.6323 8.3 71.5123 8.3C72.379 8.3 73.0457 8.50667 73.5123 8.92C73.979 9.32 74.279 9.79333 74.4123 10.34C74.8123 9.68667 75.339 9.18667 75.9923 8.84C76.659 8.48 77.4057 8.3 78.2323 8.3C78.899 8.3 79.439 8.42667 79.8523 8.68C80.2657 8.92 80.579 9.24 80.7923 9.64C81.0057 10.04 81.1523 10.4733 81.2323 10.94C81.3123 11.3933 81.3523 11.84 81.3523 12.28V19Z" fill="white"/>
</svg>
